<svg xmlns="http://www.w3.org/2000/svg" xmlns:xlink="http://www.w3.org/1999/xlink" width="64" zoomAndPan="magnify" viewBox="0 0 48 48" height="64" preserveAspectRatio="xMidYMid meet" version="1.2"><defs><clipPath id="ab876f0903"><path d="M 0.488281 7 L 25 7 L 25 39 L 0.488281 39 Z M 0.488281 7 "/></clipPath><clipPath id="8f380e1310"><path d="M 21 7 L 47.507812 7 L 47.507812 39 L 21 39 Z M 21 7 "/></clipPath></defs><g id="2d9ea2f1c8"><g clip-rule="nonzero" clip-path="url(#ab876f0903)"><g style="fill:#ffffe6;fill-opacity:1;"><g transform="translate(1.072568, 36.000001)"><path style="stroke:none" d="M 11.761719 2.355469 C 9.574219 2.355469 7.597656 1.992188 5.832031 1.265625 C 3.957031 0.5 2.453125 -0.648438 1.316406 -2.171875 C 0.148438 -3.742188 -0.46875 -5.601562 -0.53125 -7.753906 L -0.59375 -9.910156 L 10.226562 -9.910156 L 10.421875 -8.03125 C 10.464844 -7.601562 10.570312 -7.3125 10.734375 -7.164062 C 10.910156 -7.011719 11.1875 -6.933594 11.574219 -6.933594 C 12.03125 -6.933594 12.339844 -6.996094 12.503906 -7.128906 C 12.515625 -7.136719 12.523438 -7.140625 12.523438 -7.144531 C 12.519531 -7.140625 12.519531 -7.136719 12.515625 -7.132812 C 12.527344 -7.15625 12.535156 -7.210938 12.535156 -7.296875 C 12.535156 -7.34375 12.53125 -7.375 12.523438 -7.390625 L 12.515625 -7.394531 C 12.265625 -7.636719 11.941406 -7.84375 11.546875 -8.015625 C 10.988281 -8.253906 10.167969 -8.539062 9.078125 -8.863281 C 7.273438 -9.417969 5.792969 -9.980469 4.625 -10.550781 C 3.261719 -11.21875 2.089844 -12.191406 1.121094 -13.476562 C 0.0703125 -14.867188 -0.457031 -16.617188 -0.457031 -18.722656 C -0.457031 -20.246094 -0.171875 -21.621094 0.398438 -22.851562 C 0.980469 -24.109375 1.84375 -25.1875 2.992188 -26.085938 C 5.132812 -27.757812 7.855469 -28.59375 11.164062 -28.59375 C 14.523438 -28.59375 17.273438 -27.757812 19.414062 -26.085938 C 21.679688 -24.316406 22.890625 -21.882812 23.046875 -18.789062 L 23.15625 -16.589844 L 12.09375 -16.589844 L 11.980469 -18.5625 C 11.964844 -18.808594 11.898438 -18.980469 11.785156 -19.078125 C 11.605469 -19.230469 11.324219 -19.308594 10.941406 -19.308594 C 10.695312 -19.308594 10.53125 -19.273438 10.453125 -19.207031 C 10.472656 -19.222656 10.488281 -19.242188 10.496094 -19.261719 C 10.476562 -19.214844 10.46875 -19.136719 10.46875 -19.019531 C 10.46875 -18.988281 10.46875 -18.96875 10.472656 -18.957031 C 10.472656 -18.960938 10.46875 -18.96875 10.464844 -18.976562 C 10.480469 -18.945312 10.539062 -18.902344 10.632812 -18.847656 C 11.292969 -18.457031 12.394531 -18.011719 13.933594 -17.511719 C 15.726562 -16.90625 17.191406 -16.324219 18.328125 -15.761719 C 19.671875 -15.097656 20.824219 -14.140625 21.789062 -12.894531 C 22.851562 -11.523438 23.382812 -9.820312 23.382812 -7.777344 C 23.382812 -5.890625 22.898438 -4.171875 21.933594 -2.617188 C 20.96875 -1.066406 19.589844 0.15625 17.796875 1.054688 C 16.0625 1.921875 14.050781 2.355469 11.761719 2.355469 Z M 11.761719 -1.832031 C 13.390625 -1.832031 14.78125 -2.121094 15.925781 -2.691406 C 17.011719 -3.234375 17.828125 -3.945312 18.375 -4.828125 C 18.921875 -5.707031 19.195312 -6.6875 19.195312 -7.777344 C 19.195312 -8.863281 18.957031 -9.714844 18.480469 -10.328125 C 17.910156 -11.070312 17.238281 -11.628906 16.472656 -12.003906 C 15.5 -12.484375 14.226562 -12.992188 12.644531 -13.527344 C 10.808594 -14.121094 9.425781 -14.695312 8.496094 -15.246094 C 7.796875 -15.660156 7.257812 -16.183594 6.878906 -16.8125 C 6.480469 -17.472656 6.28125 -18.207031 6.28125 -19.019531 C 6.28125 -20.425781 6.757812 -21.542969 7.707031 -22.367188 C 8.574219 -23.121094 9.652344 -23.496094 10.941406 -23.496094 C 12.347656 -23.496094 13.53125 -23.085938 14.492188 -22.273438 C 15.519531 -21.402344 16.074219 -20.246094 16.160156 -18.808594 L 14.070312 -18.683594 L 14.070312 -20.777344 L 20.953125 -20.777344 L 20.953125 -18.683594 L 18.863281 -18.578125 C 18.773438 -20.398438 18.097656 -21.800781 16.835938 -22.785156 C 15.453125 -23.867188 13.5625 -24.40625 11.164062 -24.40625 C 8.816406 -24.40625 6.953125 -23.867188 5.570312 -22.785156 C 4.953125 -22.304688 4.496094 -21.742188 4.199219 -21.09375 C 3.886719 -20.421875 3.730469 -19.628906 3.730469 -18.722656 C 3.730469 -17.550781 3.976562 -16.644531 4.460938 -16 C 5.03125 -15.25 5.699219 -14.6875 6.464844 -14.3125 C 7.433594 -13.839844 8.703125 -13.359375 10.273438 -12.875 C 11.519531 -12.503906 12.496094 -12.164062 13.203125 -11.859375 C 14.074219 -11.484375 14.816406 -10.996094 15.433594 -10.398438 C 16.292969 -9.5625 16.722656 -8.53125 16.722656 -7.296875 C 16.722656 -6.609375 16.589844 -5.976562 16.328125 -5.402344 C 16.054688 -4.792969 15.648438 -4.277344 15.113281 -3.851562 C 14.183594 -3.113281 13.003906 -2.746094 11.574219 -2.746094 C 10.125 -2.746094 8.917969 -3.175781 7.949219 -4.039062 C 6.972656 -4.90625 6.410156 -6.09375 6.253906 -7.601562 L 8.335938 -7.816406 L 8.335938 -5.722656 L 1.5625 -5.722656 L 1.5625 -7.816406 L 3.65625 -7.875 C 3.691406 -6.605469 4.03125 -5.539062 4.675781 -4.675781 C 5.347656 -3.769531 6.265625 -3.082031 7.417969 -2.609375 C 8.679688 -2.089844 10.125 -1.832031 11.761719 -1.832031 Z M 11.761719 -1.832031 "/></g></g></g><g clip-rule="nonzero" clip-path="url(#8f380e1310)"><g style="fill:#ffffe6;fill-opacity:1;"><g transform="translate(20.983, 36.000001)"><path style="stroke:none" d="M 15.789062 1.269531 L 7.007812 -10.269531 L 8.671875 -11.539062 L 10.765625 -11.539062 L 10.765625 2.09375 L 0.214844 2.09375 L 0.214844 -28.222656 L 10.765625 -28.222656 L 10.765625 -14.664062 L 8.671875 -14.664062 L 7.003906 -15.929688 L 16.34375 -28.222656 L 29.1875 -28.222656 L 16.382812 -12.027344 L 14.738281 -13.324219 L 16.382812 -14.621094 L 29.550781 2.09375 L 16.417969 2.09375 Z M 19.121094 -1.269531 L 17.457031 0 L 17.457031 -2.09375 L 25.234375 -2.09375 L 25.234375 0 L 23.589844 1.296875 L 12.070312 -13.328125 L 23.21875 -27.425781 L 24.863281 -26.128906 L 24.863281 -24.035156 L 17.382812 -24.035156 L 17.382812 -26.128906 L 19.046875 -24.863281 L 6.578125 -8.445312 L 6.578125 -26.128906 L 8.671875 -26.128906 L 8.671875 -24.035156 L 2.308594 -24.035156 L 2.308594 -26.128906 L 4.402344 -26.128906 L 4.402344 0 L 2.308594 0 L 2.308594 -2.09375 L 8.671875 -2.09375 L 8.671875 0 L 6.578125 0 L 6.578125 -17.746094 Z M 19.121094 -1.269531 "/></g></g></g><g style="fill:#183153;fill-opacity:1;"><g transform="translate(1.072568, 36.000001)"><path style="stroke:none" d="M 11.765625 0.265625 C 9.847656 0.265625 8.132812 -0.0390625 6.625 -0.65625 C 5.113281 -1.28125 3.90625 -2.203125 3 -3.421875 C 2.09375 -4.640625 1.613281 -6.101562 1.5625 -7.8125 L 8.34375 -7.8125 C 8.4375 -6.84375 8.769531 -6.101562 9.34375 -5.59375 C 9.914062 -5.09375 10.660156 -4.84375 11.578125 -4.84375 C 12.515625 -4.84375 13.253906 -5.054688 13.796875 -5.484375 C 14.347656 -5.921875 14.625 -6.523438 14.625 -7.296875 C 14.625 -7.941406 14.40625 -8.472656 13.96875 -8.890625 C 13.539062 -9.316406 13.007812 -9.664062 12.375 -9.9375 C 11.738281 -10.207031 10.835938 -10.519531 9.671875 -10.875 C 7.984375 -11.394531 6.601562 -11.914062 5.53125 -12.4375 C 4.46875 -12.957031 3.550781 -13.722656 2.78125 -14.734375 C 2.019531 -15.753906 1.640625 -17.082031 1.640625 -18.71875 C 1.640625 -21.15625 2.519531 -23.0625 4.28125 -24.4375 C 6.039062 -25.8125 8.335938 -26.5 11.171875 -26.5 C 14.046875 -26.5 16.363281 -25.8125 18.125 -24.4375 C 19.882812 -23.0625 20.828125 -21.144531 20.953125 -18.6875 L 14.0625 -18.6875 C 14.019531 -19.53125 13.710938 -20.191406 13.140625 -20.671875 C 12.566406 -21.160156 11.832031 -21.40625 10.9375 -21.40625 C 10.164062 -21.40625 9.546875 -21.195312 9.078125 -20.78125 C 8.609375 -20.375 8.375 -19.785156 8.375 -19.015625 C 8.375 -18.171875 8.769531 -17.515625 9.5625 -17.046875 C 10.351562 -16.578125 11.59375 -16.066406 13.28125 -15.515625 C 14.96875 -14.953125 16.335938 -14.40625 17.390625 -13.875 C 18.453125 -13.351562 19.367188 -12.597656 20.140625 -11.609375 C 20.910156 -10.617188 21.296875 -9.34375 21.296875 -7.78125 C 21.296875 -6.289062 20.914062 -4.9375 20.15625 -3.71875 C 19.394531 -2.5 18.296875 -1.53125 16.859375 -0.8125 C 15.421875 -0.09375 13.722656 0.265625 11.765625 0.265625 Z M 11.765625 0.265625 "/></g></g><g style="fill:#183153;fill-opacity:1;"><g transform="translate(20.983, 36.000001)"><path style="stroke:none" d="M 17.453125 0 L 8.671875 -11.53125 L 8.671875 0 L 2.3125 0 L 2.3125 -26.125 L 8.671875 -26.125 L 8.671875 -14.671875 L 17.375 -26.125 L 24.859375 -26.125 L 14.734375 -13.328125 L 25.234375 0 Z M 17.453125 0 "/></g></g></g></svg>